<svg xmlns="http://www.w3.org/2000/svg" viewBox="0 0 19 19" shape-rendering="crispEdges">
<rect x="0" y="0" width="19" height="1" fill="#1e1e2e"/>
<rect x="0" y="1" width="19" height="1" fill="#1e1e2e"/>
<rect x="0" y="2" width="19" height="1" fill="#1e1e2e"/>
<rect x="0" y="3" width="4" height="1" fill="#1e1e2e"/>
<rect x="4" y="3" width="9" height="1" fill="#cdd6f4"/>
<rect x="13" y="3" width="6" height="1" fill="#1e1e2e"/>
<rect x="0" y="4" width="4" height="1" fill="#1e1e2e"/>
<rect x="4" y="4" width="1" height="1" fill="#cdd6f4"/>
<rect x="5" y="4" width="5" height="1" fill="#1e1e2e"/>
<rect x="10" y="4" width="1" height="1" fill="#cdd6f4"/>
<rect x="11" y="4" width="2" height="1" fill="#1e1e2e"/>
<rect x="13" y="4" width="1" height="1" fill="#cdd6f4"/>
<rect x="14" y="4" width="5" height="1" fill="#1e1e2e"/>
<rect x="0" y="5" width="4" height="1" fill="#1e1e2e"/>
<rect x="4" y="5" width="1" height="1" fill="#cdd6f4"/>
<rect x="5" y="5" width="5" height="1" fill="#1e1e2e"/>
<rect x="10" y="5" width="1" height="1" fill="#cdd6f4"/>
<rect x="11" y="5" width="3" height="1" fill="#1e1e2e"/>
<rect x="14" y="5" width="1" height="1" fill="#cdd6f4"/>
<rect x="15" y="5" width="4" height="1" fill="#1e1e2e"/>
<rect x="0" y="6" width="4" height="1" fill="#1e1e2e"/>
<rect x="4" y="6" width="1" height="1" fill="#cdd6f4"/>
<rect x="5" y="6" width="2" height="1" fill="#1e1e2e"/>
<rect x="7" y="6" width="1" height="1" fill="#cdd6f4"/>
<rect x="8" y="6" width="2" height="1" fill="#1e1e2e"/>
<rect x="10" y="6" width="1" height="1" fill="#cdd6f4"/>
<rect x="11" y="6" width="3" height="1" fill="#1e1e2e"/>
<rect x="14" y="6" width="1" height="1" fill="#cdd6f4"/>
<rect x="15" y="6" width="4" height="1" fill="#1e1e2e"/>
<rect x="0" y="7" width="4" height="1" fill="#1e1e2e"/>
<rect x="4" y="7" width="1" height="1" fill="#cdd6f4"/>
<rect x="5" y="7" width="2" height="1" fill="#1e1e2e"/>
<rect x="7" y="7" width="1" height="1" fill="#cdd6f4"/>
<rect x="8" y="7" width="2" height="1" fill="#1e1e2e"/>
<rect x="10" y="7" width="5" height="1" fill="#cdd6f4"/>
<rect x="15" y="7" width="4" height="1" fill="#1e1e2e"/>
<rect x="0" y="8" width="4" height="1" fill="#1e1e2e"/>
<rect x="4" y="8" width="1" height="1" fill="#cdd6f4"/>
<rect x="5" y="8" width="9" height="1" fill="#1e1e2e"/>
<rect x="14" y="8" width="1" height="1" fill="#cdd6f4"/>
<rect x="15" y="8" width="4" height="1" fill="#1e1e2e"/>
<rect x="0" y="9" width="4" height="1" fill="#1e1e2e"/>
<rect x="4" y="9" width="1" height="1" fill="#cdd6f4"/>
<rect x="5" y="9" width="9" height="1" fill="#1e1e2e"/>
<rect x="14" y="9" width="1" height="1" fill="#cdd6f4"/>
<rect x="15" y="9" width="4" height="1" fill="#1e1e2e"/>
<rect x="0" y="10" width="4" height="1" fill="#1e1e2e"/>
<rect x="4" y="10" width="1" height="1" fill="#cdd6f4"/>
<rect x="5" y="10" width="9" height="1" fill="#1e1e2e"/>
<rect x="14" y="10" width="1" height="1" fill="#cdd6f4"/>
<rect x="15" y="10" width="4" height="1" fill="#1e1e2e"/>
<rect x="0" y="11" width="4" height="1" fill="#1e1e2e"/>
<rect x="4" y="11" width="1" height="1" fill="#cdd6f4"/>
<rect x="5" y="11" width="2" height="1" fill="#1e1e2e"/>
<rect x="7" y="11" width="1" height="1" fill="#cdd6f4"/>
<rect x="8" y="11" width="6" height="1" fill="#1e1e2e"/>
<rect x="14" y="11" width="1" height="1" fill="#cdd6f4"/>
<rect x="15" y="11" width="4" height="1" fill="#1e1e2e"/>
<rect x="0" y="12" width="4" height="1" fill="#1e1e2e"/>
<rect x="4" y="12" width="1" height="1" fill="#cdd6f4"/>
<rect x="5" y="12" width="3" height="1" fill="#1e1e2e"/>
<rect x="8" y="12" width="4" height="1" fill="#cdd6f4"/>
<rect x="12" y="12" width="2" height="1" fill="#1e1e2e"/>
<rect x="14" y="12" width="1" height="1" fill="#cdd6f4"/>
<rect x="15" y="12" width="4" height="1" fill="#1e1e2e"/>
<rect x="0" y="13" width="4" height="1" fill="#1e1e2e"/>
<rect x="4" y="13" width="1" height="1" fill="#cdd6f4"/>
<rect x="5" y="13" width="9" height="1" fill="#1e1e2e"/>
<rect x="14" y="13" width="1" height="1" fill="#cdd6f4"/>
<rect x="15" y="13" width="4" height="1" fill="#1e1e2e"/>
<rect x="0" y="14" width="4" height="1" fill="#1e1e2e"/>
<rect x="4" y="14" width="1" height="1" fill="#cdd6f4"/>
<rect x="5" y="14" width="9" height="1" fill="#1e1e2e"/>
<rect x="14" y="14" width="1" height="1" fill="#cdd6f4"/>
<rect x="15" y="14" width="4" height="1" fill="#1e1e2e"/>
<rect x="0" y="15" width="4" height="1" fill="#1e1e2e"/>
<rect x="4" y="15" width="11" height="1" fill="#cdd6f4"/>
<rect x="15" y="15" width="4" height="1" fill="#1e1e2e"/>
<rect x="0" y="16" width="19" height="1" fill="#1e1e2e"/>
<rect x="0" y="17" width="19" height="1" fill="#1e1e2e"/>
<rect x="0" y="18" width="19" height="1" fill="#1e1e2e"/>
</svg>
